<?xml version="1.0" encoding="utf-8"?>
<!-- Generator: Adobe Illustrator 27.0.0, SVG Export Plug-In . SVG Version: 6.00 Build 0)  -->
<svg version="1.1" id="Layer_1" xmlns="http://www.w3.org/2000/svg" xmlns:xlink="http://www.w3.org/1999/xlink" x="0px" y="0px"
	 viewBox="0 0 40 40" style="enable-background:new 0 0 40 40;" xml:space="preserve">
<style type="text/css">
	.st0{fill:#FFFFFF;}
</style>
<g>
	<path class="st0" d="M12.87,39.33c-0.94,0-1.74-0.33-2.4-0.99c-0.66-0.66-0.99-1.46-0.99-2.4c0-0.94,0.33-1.74,0.99-2.4
		c0.66-0.66,1.46-0.99,2.4-0.99c0.94,0,1.74,0.33,2.4,0.99c0.66,0.66,0.99,1.46,0.99,2.4c0,0.94-0.33,1.74-0.99,2.4
		C14.61,39,13.81,39.33,12.87,39.33z M31.71,39.33c-0.94,0-1.74-0.33-2.4-0.99c-0.66-0.66-0.99-1.46-0.99-2.4
		c0-0.94,0.33-1.74,0.99-2.4c0.66-0.66,1.46-0.99,2.4-0.99c0.94,0,1.74,0.33,2.4,0.99c0.66,0.66,0.99,1.46,0.99,2.4
		c0,0.94-0.33,1.74-0.99,2.4C33.45,39,32.65,39.33,31.71,39.33z M9.34,4.39h26.37c1.13,0,1.99,0.5,2.59,1.51
		c0.6,1,0.61,2.02,0.05,3.06l-5.56,10.08c-0.41,0.66-0.92,1.2-1.53,1.62c-0.61,0.42-1.31,0.64-2.1,0.64H15.23l-2.31,4.38h22.7v3.86
		H12.4c-1.57,0-2.69-0.53-3.37-1.6c-0.67-1.07-0.65-2.23,0.07-3.48l2.87-5.27L5.1,4.53H1.24V0.67H7.6L9.34,4.39z"/>
</g>
</svg>
