<?xml version="1.0" encoding="utf-8"?>
<!-- Generator: Adobe Illustrator 27.0.0, SVG Export Plug-In . SVG Version: 6.00 Build 0)  -->
<svg version="1.1" id="Layer_1" xmlns="http://www.w3.org/2000/svg" xmlns:xlink="http://www.w3.org/1999/xlink" x="0px" y="0px"
	 viewBox="0 0 40 40" style="enable-background:new 0 0 40 40;" xml:space="preserve" fill="skyblue">
<path d="M15.16,34.94c-1.33,0-2.66,0-4,0c-0.04-0.01-0.07-0.03-0.11-0.03c-0.26-0.03-0.53-0.06-0.8-0.09
	c-1.01-0.13-2-0.34-2.97-0.61c-1.67-0.47-3.25-1.13-4.76-1.99c-0.31-0.18-0.61-0.36-0.92-0.54c4.11,0.37,7.8-0.66,11.07-3.17
	c-1.6-0.07-3.05-0.56-4.33-1.51c-1.29-0.95-2.17-2.2-2.7-3.74c1.15,0.21,2.26,0.17,3.37-0.15c-1.75-0.4-3.2-1.27-4.33-2.66
	c-1.13-1.4-1.68-3-1.69-4.83c1.07,0.58,2.19,0.89,3.39,0.92c-1.6-1.15-2.68-2.65-3.12-4.57c-0.45-1.93-0.16-3.75,0.81-5.5
	c1.95,2.37,4.26,4.23,6.97,5.61c2.71,1.37,5.58,2.13,8.63,2.29c-0.01-0.06-0.02-0.1-0.03-0.15c-0.22-1.07-0.23-2.13,0.01-3.19
	C20.05,9.2,21,7.73,22.48,6.6c1.1-0.84,2.34-1.33,3.71-1.47c0.19-0.02,0.38-0.04,0.58-0.06c0.18,0,0.37,0,0.55,0
	c0.06,0.01,0.12,0.02,0.18,0.03c0.39,0.06,0.79,0.08,1.18,0.17c1.47,0.32,2.72,1.04,3.77,2.11c0.05,0.06,0.1,0.08,0.19,0.06
	c1.52-0.31,2.95-0.84,4.31-1.59c0.11-0.06,0.22-0.12,0.37-0.2c-0.61,1.79-1.71,3.14-3.27,4.14c1.47-0.16,2.88-0.54,4.26-1.15
	c-0.05,0.08-0.08,0.12-0.11,0.16c-0.97,1.4-2.14,2.61-3.51,3.61c-0.09,0.07-0.13,0.14-0.12,0.25c0.04,1.12,0,2.23-0.14,3.35
	c-0.14,1.08-0.34,2.13-0.64,3.18c-1.01,3.58-2.76,6.73-5.32,9.43c-1.26,1.33-2.67,2.46-4.24,3.4c-1.81,1.09-3.75,1.87-5.8,2.36
	c-0.86,0.2-1.74,0.37-2.62,0.46C15.6,34.87,15.38,34.91,15.16,34.94z"/>
</svg>
