<?xml version="1.0" encoding="utf-8"?>
<!-- Generator: Adobe Illustrator 27.0.0, SVG Export Plug-In . SVG Version: 6.00 Build 0)  -->
<svg version="1.1" id="Layer_1" xmlns="http://www.w3.org/2000/svg" xmlns:xlink="http://www.w3.org/1999/xlink" x="0px" y="0px"
	 viewBox="0 0 40 40" style="enable-background:new 0 0 40 40;" xml:space="preserve" fill="green">
<g>
	<path d="M20.06,1.88c9.95,0.02,18.08,8.18,18.06,18.13c-0.01,10-8.18,18.14-18.18,18.11C9.95,38.09,1.83,29.9,1.88,19.89
		C1.92,9.94,10.09,1.86,20.06,1.88z M20.03,35.97c8.85-0.01,15.96-7.16,15.94-16.02c-0.02-8.8-7.14-15.91-15.95-15.92
		C11.16,4.03,4.03,11.15,4.03,20.01C4.03,28.86,11.17,35.98,20.03,35.97z"/>
	<path d="M13.5,10c0.23,0.37,0.44,0.71,0.63,1.05c0.91,1.57,1.81,3.14,2.73,4.76c-1.21,1.02-1.22,2.35-0.9,3.71
		c0.45,1.94,1.39,3.63,2.84,5.01c1.01,0.96,2.17,1.49,3.63,0.94c1.13,1.96,2.25,3.89,3.37,5.82c-2.08,1.35-3.48,1.36-5.42-0.07
		c-3.61-2.66-6.03-6.27-7.78-10.31c-0.84-1.94-1.36-4.05-1.8-6.13C10.33,12.56,11.32,10.94,13.5,10z"/>
	<path d="M29.33,29.4c-0.17,0.22-0.31,0.5-0.53,0.64c-2.43,1.55-2.2,1.57-3.44-0.64c-0.72-1.29-1.46-2.58-2.23-3.84
		c-0.47-0.77-0.29-1.23,0.46-1.68c1.96-1.17,1.94-1.19,3.09,0.8c0.76,1.31,1.52,2.62,2.28,3.93C29.08,28.84,29.17,29.08,29.33,29.4z
		"/>
	<path d="M20.46,14.11c-0.17,0.21-0.29,0.44-0.48,0.6c-1.87,1.52-2.25,1.44-3.45-0.63c-0.76-1.31-1.49-2.63-2.28-3.92
		c-0.45-0.73-0.29-1.19,0.44-1.6c2.17-1.22,1.96-1.23,3.09,0.77c0.75,1.31,1.52,2.62,2.27,3.93C20.2,13.51,20.31,13.78,20.46,14.11z
		"/>
</g>
</svg>
