<?xml version="1.0" encoding="utf-8"?>
<!-- Generator: Adobe Illustrator 27.0.0, SVG Export Plug-In . SVG Version: 6.00 Build 0)  -->
<svg version="1.1" id="Layer_1" xmlns="http://www.w3.org/2000/svg" xmlns:xlink="http://www.w3.org/1999/xlink" x="0px" y="0px"
	 viewBox="0 0 40 40" style="enable-background:new 0 0 40 40;" xml:space="preserve" fill="red">
<path d="M6.43,15.96c0-0.58,0-1.16,0-1.73c0.11-0.6,0.16-1.22,0.33-1.8c1.06-3.69,3.21-6.52,6.66-8.27c2.77-1.41,5.72-1.86,8.8-1.62
	c3.23,0.25,6,1.48,8.25,3.85c1.42,1.5,2.42,3.22,2.85,5.25c0.11,0.51,0.17,1.03,0.25,1.55c0,0.65,0,1.31,0,1.96
	c-0.02,0.12-0.06,0.24-0.06,0.37c-0.1,1.9-0.47,3.73-1.25,5.46c-1.67,3.71-4.25,6.33-8.52,6.8c-1.37,0.15-2.7-0.01-3.95-0.66
	c-0.8-0.42-1.49-0.95-2.01-1.8c-0.31,1.22-0.63,2.35-0.88,3.49c-0.49,2.27-1.25,4.43-2.56,6.37c-0.54,0.8-1.11,1.57-1.67,2.36
	c-0.1,0-0.2,0-0.3,0c-0.05-0.11-0.13-0.22-0.14-0.33c-0.08-0.73-0.16-1.47-0.23-2.21c-0.18-2.2,0.03-4.35,0.57-6.49
	c0.78-3.16,1.51-6.34,2.25-9.51c0.04-0.15,0.06-0.33,0-0.47c-0.55-1.39-0.72-2.82-0.48-4.28c0.22-1.37,0.83-2.55,1.98-3.38
	c1.19-0.87,3.33-0.84,4.15,0.77c0.51,0.99,0.48,2.03,0.22,3.05c-0.43,1.67-0.95,3.32-1.42,4.98c-0.21,0.74-0.41,1.49-0.22,2.26
	c0.42,1.68,2.05,2.68,3.82,2.4c1.58-0.25,2.71-1.16,3.54-2.44c1.97-3.04,2.57-6.41,2.06-9.94C28.17,9.7,26.9,8,24.91,6.94
	c-2.35-1.26-4.89-1.34-7.4-0.69c-3.84,0.99-6.15,3.58-6.97,7.44c-0.45,2.13-0.22,4.18,1.24,5.93c0.24,0.29,0.28,0.63,0.19,1
	c-0.13,0.52-0.27,1.04-0.41,1.56c-0.16,0.61-0.48,0.76-1.06,0.52c-2.19-0.92-3.23-2.71-3.77-4.89C6.59,17.2,6.53,16.58,6.43,15.96z"
	/>
</svg>
