<?xml version="1.0" encoding="utf-8"?>
<!-- Generator: Adobe Illustrator 27.0.0, SVG Export Plug-In . SVG Version: 6.00 Build 0)  -->
<svg version="1.1" id="Layer_1" xmlns="http://www.w3.org/2000/svg" xmlns:xlink="http://www.w3.org/1999/xlink" x="0px" y="0px"
	 viewBox="0 0 40 40" style="enable-background:new 0 0 40 40;" xml:space="preserve" fill="blue">
<path d="M29.13,1.88c0.51,0.18,0.66,0.54,0.65,1.07c-0.03,1.33-0.01,2.67-0.01,4c0,0.71-0.23,0.93-0.93,0.93
	c-1.37,0-2.74,0.02-4.11,0c-1.54-0.03-2.55,1.15-2.5,2.5c0.05,1.56,0.01,3.11,0.01,4.67c0,0.13,0,0.26,0,0.45c0.16,0,0.29,0,0.43,0
	c2.03,0,4.06,0,6.09,0c0.89,0,1.18,0.4,0.9,1.24c-0.44,1.32-0.88,2.63-1.32,3.95c-0.22,0.67-0.37,0.78-1.07,0.78
	c-1.55,0-3.09,0.01-4.64-0.01c-0.31,0-0.4,0.09-0.4,0.4c0.01,5.05,0,10.1,0.01,15.15c0,0.54-0.14,0.94-0.69,1.12
	c-1.53,0-3.07,0-4.6,0c-0.56-0.16-0.7-0.55-0.7-1.1c0.02-5.03,0.01-10.05,0.01-15.08c0-0.48,0-0.48-0.49-0.48c-1.55,0-3.09,0-4.64,0
	c-0.66,0-0.91-0.24-0.91-0.88c-0.01-1.39,0-2.78,0-4.18c0-0.66,0.26-0.91,0.93-0.92c1.55,0,3.09,0,4.64,0c0.47,0,0.47,0,0.47-0.49
	c0-1.56,0-3.11,0-4.67c-0.01-2.23,0.72-4.19,2.26-5.81c1.46-1.54,3.26-2.41,5.39-2.57c0.14-0.01,0.28-0.05,0.41-0.08
	C25.92,1.88,27.52,1.88,29.13,1.88z"/>
</svg>
